<?xml version="1.0" encoding="UTF-8"?>
<svg width="22px" height="24px" viewBox="0 0 22 24" version="1.1" xmlns="http://www.w3.org/2000/svg" xmlns:xlink="http://www.w3.org/1999/xlink">
    <title>功能/作业状态/橙备份 14@1x</title>
    <defs>
        <linearGradient x1="50%" y1="0%" x2="50%" y2="100%" id="linearGradient-1">
            <stop stop-color="#7C8792" offset="0%"></stop>
            <stop stop-color="#76818C" offset="69.3873141%"></stop>
            <stop stop-color="#4C545E" offset="100%"></stop>
        </linearGradient>
    </defs>
    <g id="控件" stroke="none" stroke-width="1" fill="none" fill-rule="evenodd">
        <g id="概览信息/常规" transform="translate(-25.000000, -16.000000)">
            <g id="编组" transform="translate(24.000000, 16.000000)">
                <g id="功能/作业状态/黄" transform="translate(1.000000, 0.000000)">
                    <path d="M1.05133619,5.26104932 L9.98883619,0.263315403 C10.6166891,-0.0877718009 11.3833109,-0.0877718009 12.0111638,0.263315403 L20.9486638,5.26104932 C21.5980976,5.62420425 22,6.3073487 22,7.0480863 L22,16.9519137 C22,17.6926513 21.5980976,18.3757957 20.9486638,18.7389507 L12.0111638,23.7366846 C11.3833109,24.0877718 10.6166891,24.0877718 9.98883619,23.7366846 L1.05133619,18.7389507 C0.401902419,18.3757957 0,17.6926513 0,16.9519137 L0,7.0480863 C0,6.3073487 0.401902419,5.62420425 1.05133619,5.26104932 Z" id="3" fill="url(#linearGradient-1)"></path>
                    <path d="M11.5935526,10.6982347 L20.5310526,6.53345647 C21.046751,6.29314661 21.6607709,6.51393086 21.9025045,7.02659191 C21.9667147,7.1627668 22,7.31131819 22,7.46171141 L22,17.5514854 C22,17.9218542 21.7990488,18.2634264 21.4743319,18.4450039 L12.5368319,23.4427378 C12.0404316,23.7203184 11.4116629,23.5453001 11.1324377,23.0518235 C11.0456107,22.8983734 11,22.7252799 11,22.5492193 L11,11.6264897 C11,11.2288172 11.2313431,10.8670204 11.5935526,10.6982347 Z" id="3备份" fill="#4C545E"></path>
                    <path d="M10.4064474,10.6982347 L1.46894743,6.53345647 C0.953249049,6.29314661 0.339229091,6.51393086 0.0974954723,7.02659191 C0.0332853105,7.1627668 0,7.31131819 0,7.46171141 L0,17.5514854 C0,17.9218542 0.20095121,18.2634264 0.525668097,18.4450039 L9.4631681,23.4427378 C9.95956841,23.7203184 10.5883371,23.5453001 10.8675623,23.0518235 C10.9543893,22.8983734 11,22.7252799 11,22.5492193 L11,11.6264897 C11,11.2288172 10.7686569,10.8670204 10.4064474,10.6982347 Z" id="3备份-2" fill="#606770"></path>
                </g>
            </g>
        </g>
    </g>
</svg>