<?xml version="1.0" encoding="UTF-8"?>
<svg width="22px" height="18px" viewBox="0 0 22 18" version="1.1" xmlns="http://www.w3.org/2000/svg" xmlns:xlink="http://www.w3.org/1999/xlink">
    <title>Dark/1-icon/16/公共/告警@1x</title>
    <g id="控件" stroke="none" stroke-width="1" fill="none" fill-rule="evenodd">
        <g id="Dark/1-icon/16/公共/告警" transform="translate(-1.000000, -3.000000)">
            <path d="M22.322202,19.0868025 L17.7294797,11.3622675 L13.1367574,3.63773251 C12.8843424,3.21324181 12.4410769,3 11.9998637,3 C11.5565982,3 11.115385,3.21324181 10.8629699,3.63773251 L6.27024765,11.3622675 L1.67752535,19.0868025 C1.17269528,19.9377768 1.80475894,21 2.81441907,21 L21.1853083,21 C22.1970206,21 22.8270321,19.9377768 22.322202,19.0868025 Z" id="路径" fill="#EBBC00" fill-rule="nonzero"></path>
            <path d="M12,18 C11.3789062,18 10.875,17.4960938 10.875,16.875 C10.875,16.2539062 11.3789062,15.75 12,15.75 C12.6210938,15.75 13.125,16.2539062 13.125,16.875 C13.125,17.4960938 12.6210938,18 12,18 Z M12,6.75 C12.4142136,6.75 12.75,7.08578644 12.75,7.5 L12.75,13.5 C12.75,13.9142136 12.4142136,14.25 12,14.25 C11.5857864,14.25 11.25,13.9142136 11.25,13.5 L11.25,7.5 C11.25,7.08578644 11.5857864,6.75 12,6.75 Z" id="形状" fill="#FFFFFF"></path>
        </g>
    </g>
</svg>